<svg xmlns="http://www.w3.org/2000/svg" viewBox="0 0 1272.28 287.41"><defs><style>.cls-1{fill:#fff;}</style></defs><g id="Layer_2" data-name="Layer 2"><g id="Layer_1-2" data-name="Layer 1"><path class="cls-1" d="M493.22,37.15a13.39,13.39,0,0,1-2.17,7.66,13.72,13.72,0,0,1-6.22,4.92,24.75,24.75,0,0,1-9.66,1.71,41.78,41.78,0,0,1-5.23-.31,32.9,32.9,0,0,1-4.7-.9,25.62,25.62,0,0,1-4.05-1.46V41.05A56,56,0,0,0,468,43.46a27.51,27.51,0,0,0,7.65,1.08A14.23,14.23,0,0,0,481,43.7a6.58,6.58,0,0,0,3.12-2.39,6.36,6.36,0,0,0,1.05-3.64,5.89,5.89,0,0,0-1.2-3.75,11.51,11.51,0,0,0-3.61-2.82,61.17,61.17,0,0,0-6.06-2.77,34.17,34.17,0,0,1-4.69-2.22,19,19,0,0,1-4-3,12.77,12.77,0,0,1-2.77-4.07,13.74,13.74,0,0,1-1-5.5,12.58,12.58,0,0,1,2.05-7.26,13,13,0,0,1,5.76-4.64,21.66,21.66,0,0,1,8.66-1.6,31.35,31.35,0,0,1,7.4.84,40,40,0,0,1,6.82,2.3l-2.6,6.63a50.92,50.92,0,0,0-6-2A22.7,22.7,0,0,0,478,7a11,11,0,0,0-4.41.79,6,6,0,0,0-2.75,2.22,6,6,0,0,0-.94,3.35A6.07,6.07,0,0,0,471,17.09a9.79,9.79,0,0,0,3.35,2.7c1.51.82,3.47,1.73,5.86,2.73a43,43,0,0,1,7,3.59,13.66,13.66,0,0,1,4.43,4.5A12.76,12.76,0,0,1,493.22,37.15Z"/><path class="cls-1" d="M520.18,50.76H512v-43H497.32v-7h37.46v7h-14.6Z"/><path class="cls-1" d="M570.7,50.76H542.4V.79h28.3v6.9H550.6V21.26h18.84v6.87H550.6V43.82h20.1Z"/><path class="cls-1" d="M596,.79q9.66,0,14.11,4t4.44,11.14a18.73,18.73,0,0,1-1,6.14,13.48,13.48,0,0,1-3.3,5.18,15.83,15.83,0,0,1-6,3.55,28.17,28.17,0,0,1-9.21,1.3h-5.33v18.7h-8.2V.79Zm-.55,6.83h-5.78V25.19h4.48a20.5,20.5,0,0,0,6.55-.91,7.94,7.94,0,0,0,4.08-2.88,8.86,8.86,0,0,0,1.4-5.2c0-2.89-.87-5-2.61-6.46S599.12,7.62,595.45,7.62Z"/><path class="cls-1" d="M642.68,50.76V.79h8.21v50Z"/><path class="cls-1" d="M705.75,50.76H695.66L671.19,10.87h-.31c.09,1.34.18,2.77.26,4.29s.15,3.07.2,4.66.11,3.21.16,4.82V50.76h-7.45V.79h10L698.5,40.4h.24c0-1.16-.1-2.49-.17-4s-.13-3.06-.19-4.66-.1-3.17-.12-4.67V.79h7.49Z"/><path class="cls-1" d="M736.2,50.76H728v-43H713.33v-7h37.46v7H736.2Z"/><path class="cls-1" d="M802.78,25.7a35.65,35.65,0,0,1-1.45,10.51A22.69,22.69,0,0,1,797,44.37a19.09,19.09,0,0,1-7.28,5.24,26.43,26.43,0,0,1-10.25,1.83,27,27,0,0,1-10.39-1.83,18.86,18.86,0,0,1-7.3-5.24,22.49,22.49,0,0,1-4.31-8.17A37.08,37.08,0,0,1,756,25.63a33.42,33.42,0,0,1,2.53-13.48,19.38,19.38,0,0,1,7.76-8.95Q771.55,0,779.51,0q7.79,0,13,3.18a19.64,19.64,0,0,1,7.74,9A33.05,33.05,0,0,1,802.78,25.7Zm-38.14,0a28.61,28.61,0,0,0,1.57,10,13.24,13.24,0,0,0,4.84,6.49,16.58,16.58,0,0,0,16.78,0,13,13,0,0,0,4.78-6.49,29.38,29.38,0,0,0,1.52-10q0-8.74-3.48-13.74T779.51,7a14.51,14.51,0,0,0-8.43,2.28,13.18,13.18,0,0,0-4.87,6.46A28.39,28.39,0,0,0,764.64,25.7Z"/></g><g id="Layer_2-2" data-name="Layer 2"><path class="cls-1" d="M136.25,165.64a1.35,1.35,0,0,1-.91.53c-.45,11.22-4.41,22.5-12.49,30.5a35.07,35.07,0,0,1-26.67,10.39,52,52,0,0,1-8.27-1.28c-.91,4.74-1.78,9.44-2.58,14.09q-1.81,10.6-2.88,18.93-.54-4.83-1.88-12.08t-2.89-15.11c-.63-3.21-1.24-6.25-1.84-9.15a64,64,0,0,0-11-2.24c-7.88-.76-17.55.49-22.35,7.61-3,4.49-3.52,10.18-4.31,15.39q-.91,5.92-1.81,11.86l12.29,49.64h62.71l18.93-85.53q.54-2.41,1.81-8.19t2.69-13.16c.68-3.57,1.31-7.1,1.93-10.6l0-.09A11.5,11.5,0,0,0,136.25,165.64Z"/><path class="cls-1" d="M41.3,204.42c5.52-6.38,14.79-7.91,22.8-7.26a60.55,60.55,0,0,1,11.08,2.12c-.15-.73-.3-1.46-.45-2.17q-1.41-6.65-2.22-10.28L68.29,167.4c-.4.16-.8.32-1.2.5a87.18,87.18,0,0,0-14,7.84A88.2,88.2,0,0,0,30.55,198c-.84,1.19-1.66,2.42-2.5,3.66l6.4,25.85c.39-2.53.77-5.07,1.16-7.6C36.46,214.42,37.53,208.79,41.3,204.42Z"/><path class="cls-1" d="M196.72,227.08q-1.16,6.81-1.75,11.72-.67-5.75-1.82-12.82a61.72,61.72,0,0,1-7.22-3c-12.41-6.08-22.45-16.24-29.78-27.84-3.53-5.6-6.09-11.58-8.92-17.53a33.53,33.53,0,0,0-5.5-8.72c.51,3,1,6,1.61,9q1.41,7.38,2.55,13.16t1.68,8.19l18.8,85.53h62.71L246,216.11a51,51,0,0,1-19.17,11A53.53,53.53,0,0,1,196.72,227.08Z"/><path class="cls-1" d="M226.26,88.41l-3,13.64.31-.07c2-.53,3.83-1.39,5.77-2a9.77,9.77,0,0,1,9.5,2c5.44,4.41,7.84,12.18,8.59,18.87,1.54,13.84-3.71,28-11.57,39.16a84.32,84.32,0,0,1-13.91,15.32,72.25,72.25,0,0,1-17.38,11.57l-.06.27-.09.45a51.85,51.85,0,0,0,8.07-.62c18.1-2.83,34.63-14.46,42.55-31.09.83-1.74,3.42-.22,2.59,1.52l-.14.28c.67,1.43,1.28,2.88,1.81,4.37l18.13-73.6Z"/><path class="cls-1" d="M226.27,156a24,24,0,0,0,10.3-9.2c4.63-7.38,5.91-17.63.3-24.77a58.18,58.18,0,0,1-19.39,6.25L211,157.67A27,27,0,0,0,226.27,156Z"/><path class="cls-1" d="M60.13,149.84c-9.16,1.61-16.86,7.91-21.86,15.54-5.53,8.45-8.36,18.27-11.14,27.88a1.36,1.36,0,0,1-.92,1l.89,3.6c1.36-2,2.73-4,4.22-5.85a91.35,91.35,0,0,1,23.13-20.74,78.54,78.54,0,0,1,13.19-6.88l-3.22-14.82A21.45,21.45,0,0,0,60.13,149.84Z"/><path class="cls-1" d="M180.33,162.66l-7.55-33.44-.84-.59c-4.68-3.09-10.5-2.83-15.42-.45-11.52,5.58-14.32,18.74-15.43,30.46a10.39,10.39,0,0,1,2,0,13.91,13.91,0,0,1,8.1,4c2.46,2.27,4.42,5,6.63,7.53a71.87,71.87,0,0,0,7.25,7.14,42.62,42.62,0,0,0,17.41,9.34,28.7,28.7,0,0,0,3.27.57c-.68-3.21-1.35-6.32-2-9.3C182.37,171.59,181.23,166.52,180.33,162.66Z"/><path class="cls-1" d="M188.06,198.38c-.56-2.78-1.12-5.46-1.66-8.1a31.44,31.44,0,0,1-3.58-.5c-6.65-1.34-12.71-4.7-18-8.85a67.64,67.64,0,0,1-7.76-7.18c-2.34-2.51-4.36-5.28-6.72-7.76-2.12-2.24-4.78-4.39-8-4.41a8.76,8.76,0,0,0-1.76.18h0q.12.73.24,1.5l.18,1.07c3.95,2.73,6.6,7.07,8.7,11.43,1.44,3,2.69,6.06,4.15,9a95,95,0,0,0,5.58,9.82c7.22,11.12,17.07,20.66,29.18,26.3,1.31.61,2.65,1.16,4,1.67-.14-.83-.29-1.67-.44-2.53Q190.28,209.39,188.06,198.38Z"/><path class="cls-1" d="M114.86,170.26c7,.46,15.92-1.55,18.61-8.76-4.43-3.92-12.27-4.29-17.73-3.34-5.29.92-10.5,2.49-15.89,2.79-.8,0-1.59,0-2.37,0l-.4,1.7c-.17.7-.35,1.45-.54,2.21,1.46.53,2.9,1.08,4.35,1.62C105.4,168.17,110,169.94,114.86,170.26Z"/><path class="cls-1" d="M38.36,160.15c5.87-7.41,14.78-13.1,24.39-13.6.34,0,.68,0,1,0L60.7,132.38A46.52,46.52,0,0,0,45,137.28c-8.43,4.46-15.64,11.77-18.93,20.83-3,8.27-2.5,17-2.47,25.67l1.45,5.85C28.1,179.23,31.56,168.74,38.36,160.15Z"/><path class="cls-1" d="M105.82,157.14c5.14-1,10.33-2.59,15.6-2.52,5,.06,10.62,1.61,14.33,5a1.51,1.51,0,0,1,.79.61,10.14,10.14,0,0,1,1.44-.8l.09-.56c1.21-13,4.49-27.75,17.58-33.61,5-2.26,10.81-2.76,15.9-.33l.3.15-2.39-10.57c-7.69-5.07-15.9-10-25.45-9a19.43,19.43,0,0,0-10.59,4.15,13,13,0,0,0-3.45,4.54,21,21,0,0,0-1.25,7.5,22.87,22.87,0,0,1-1.5,8.36,14.39,14.39,0,0,1-3.74,5,21.61,21.61,0,0,1-12.29,4.9,29.76,29.76,0,0,1-8.67-.61L98.19,157.9A37.68,37.68,0,0,0,105.82,157.14Z"/><path class="cls-1" d="M220.42,172.62a81,81,0,0,0,13.4-15,70.32,70.32,0,0,0,5.5-9.62c-.16.26-.31.53-.48.79a27,27,0,0,1-10.78,9.65,29.87,29.87,0,0,1-16.53,2.33c-.39-.05-.79-.12-1.18-.19l-5,22.56A74,74,0,0,0,220.42,172.62Z"/><path class="cls-1" d="M27.36,149.07a45.41,45.41,0,0,1,22.82-17.28,51.64,51.64,0,0,1,9.88-2.34l-8.9-41H0l20.66,83.44a59.61,59.61,0,0,1,.95-8.73A37.79,37.79,0,0,1,27.36,149.07Z"/><path class="cls-1" d="M114.54,173.24c-6.56-.51-12.57-3.19-18.69-5.46q-1,4.46-2.26,10.19-2,9.41-4.23,20.35c-.31,1.54-.59,3.05-.89,4.58A50.3,50.3,0,0,0,95.28,204a32.26,32.26,0,0,0,26.26-10.28c6.48-6.84,9.87-16,10.66-25.33C127.58,172.36,120.59,173.7,114.54,173.24Z"/><path class="cls-1" d="M116.19,135.87c4.11-1.44,7.76-4.41,8.91-8.75.73-2.79.53-5.71.82-8.56a17.18,17.18,0,0,1,2-6.9c4-7.15,13.16-9.77,20.88-9.2,7.25.54,13.64,4,19.71,7.87l-5-21.92H114.4l-11.21,48.06A24.59,24.59,0,0,0,116.19,135.87Z"/><path class="cls-1" d="M238.31,119c4.48,5,5.86,11.51,5,17.85a44,44,0,0,0,.88-17.76,30.88,30.88,0,0,0-3.35-9.92c-1.52-2.74-3.71-5.75-6.9-6.61a8,8,0,0,0-5.09.71,39.27,39.27,0,0,1-5.59,1.83l-.72.14-4.37,19.82a55.53,55.53,0,0,0,18.32-6.3A1.53,1.53,0,0,1,238.31,119Z"/><path class="cls-1" d="M203.78,190.5c-.62,3-1.39,6.75-2.3,11.31q-1.95,9.74-3.82,20c-.15.79-.29,1.57-.42,2.32a50.46,50.46,0,0,0,30.89-.63,47.81,47.81,0,0,0,19.23-13l10.53-42.74A46.66,46.66,0,0,0,255.7,161a56.32,56.32,0,0,1-7.06,9.7A60.65,60.65,0,0,1,203.78,190.5Z"/><path class="cls-1" d="M423.25,257.71c.08-5,.59-10.18-1-15.07-1.05-3.26-3-6.38-6.08-7.87-.61.56-1.22,1.1-1.87,1.61q-8.65,6.85-23.29,6.85-14.1,0-22.83-6.85c-.71-.55-1.39-1.14-2.06-1.75,0,.2.08.41.11.61a36.44,36.44,0,0,1-.15,11.79,45.72,45.72,0,0,1-4.36,12.13c-3.62,7.35-7.46,14.6-11.24,21.88q17.34,6.34,40.53,6.37,23.89,0,41.39-6.47a39.09,39.09,0,0,1-5.71-7.37C423.84,268.67,423.16,263.3,423.25,257.71Z"/><path class="cls-1" d="M452.26,203.43a44.51,44.51,0,0,0-22.82.92,84.39,84.39,0,0,1-2.64,12.43,41.14,41.14,0,0,1-8.42,15.77,16,16,0,0,1,6.38,8.16c3.77,9.79-1,20.8,3.94,30.29a36.58,36.58,0,0,0,6.76,8.77,74.21,74.21,0,0,0,28.6-20.16,85,85,0,0,0,17-32c.15-.51.28-1,.42-1.55a44.08,44.08,0,0,0-29.21-22.61Z"/><path class="cls-1" d="M346.18,259.93a65.14,65.14,0,0,0-6.73-19.25,33.88,33.88,0,0,0-5.49-7.92,17.77,17.77,0,0,0-8.28-4.5c-7.91-2.06-18-.84-25.57-4.45.34,1.29.69,2.58,1.07,3.84a85.47,85.47,0,0,0,17.33,32,75.48,75.48,0,0,0,28.19,19.88A64.3,64.3,0,0,0,346.18,259.93Z"/><path class="cls-1" d="M421.07,102.24c2.81,11.43-1.14,23.22-7.58,32.75a28.91,28.91,0,0,1,8.28,9.28,61.65,61.65,0,0,1,6.39,17.1,44.49,44.49,0,0,0,11.89,8c13.58,6.56,30,8.48,40.87,19.85a31.18,31.18,0,0,1,5.26,7.51c.2-3.42.31-6.9.31-10.47q0-30.62-9.81-53.31a74,74,0,0,0-30.81-35.18q-14.39-8.55-34.67-11.25A29.85,29.85,0,0,1,421.07,102.24Z"/><path class="cls-1" d="M474.72,187.75c-6.08-4.56-13.33-7.19-20.45-9.66-8.48-2.94-17.91-6.19-25.16-11.84a117.8,117.8,0,0,1,1.47,16.48,23.85,23.85,0,0,1,18.87,4.57,1.5,1.5,0,0,1,0,2.12,1.55,1.55,0,0,1-2.12,0,20.72,20.72,0,0,0-16.71-3.69c0,.19,0,.38,0,.57a135.11,135.11,0,0,1-.78,14.83,47.8,47.8,0,0,1,9.15-1.62,47.27,47.27,0,0,1,43.55,22.36,138,138,0,0,0,3.08-18.32A30.09,30.09,0,0,0,474.72,187.75Z"/><path class="cls-1" d="M368.12,135.81a30.22,30.22,0,0,1,10.11-5.21,16.75,16.75,0,0,1-7.92-11.9c-1.13-7,2-13.74,6.5-19,4.16-4.86,9.95-9.63,16.52-10.31,5.84-.61,10.79,2.89,13.59,7.78a29.88,29.88,0,0,1,3.52,16.43c-.37,6.25-3.11,12.06-9.22,14.42a14.36,14.36,0,0,1-5.62.94A36.44,36.44,0,0,1,411,133.4c6.69-9.84,10.65-22.69,6-34.07a26,26,0,0,0-12.45-13.47c-4.24-.35-8.65-.54-13.25-.54-1,0-2,0-3.06,0a49.53,49.53,0,0,0-11.66,6.3A50.61,50.61,0,0,0,364.73,103a34.07,34.07,0,0,0-6.36,14.42,29.13,29.13,0,0,0,2.6,17,39.78,39.78,0,0,0,3,5.33A33.14,33.14,0,0,1,368.12,135.81Z"/><path class="cls-1" d="M383.74,109.58a9.87,9.87,0,0,1,6.21-5.75c3.27-.82,5.77,1.09,7.63,3.58s3.81,5.65,3.88,9a7.57,7.57,0,0,1-4,7.06c-1.74.82-3.26-1.76-1.51-2.59,2.61-1.22,2.87-4.36,2-6.81a17.62,17.62,0,0,0-2.3-4.16,8,8,0,0,0-2.92-3c-2.59-1.15-5.1,1.51-6.15,3.6a10.94,10.94,0,0,0-.85,6.9,10.35,10.35,0,0,0,8.62,8.54,11.14,11.14,0,0,0,11.23-5.33c2.39-4.27,2.27-9.95,1.33-14.63-.84-4.19-2.6-8.6-6-11.37-8.86-7.18-20.7,4.07-25,11.51-2.49,4.28-3.64,9.28-2.17,14.11,1.27,4.18,4.36,7.82,8.73,8.83a1.33,1.33,0,0,1,.75.43,49,49,0,0,1,8.06-.65c1,0,2,0,3,.08a12.88,12.88,0,0,1-7.92-3.92A14.5,14.5,0,0,1,383.74,109.58Z"/><path class="cls-1" d="M330.31,134.67a55.69,55.69,0,0,1,17.53,11.26,27.45,27.45,0,0,1,7.3,10.56c.08-.27.14-.55.22-.81A44.45,44.45,0,0,1,362,142.16a39.51,39.51,0,0,1-5.75-11.85,30.92,30.92,0,0,1,.26-18,41.24,41.24,0,0,1,9-15,58.13,58.13,0,0,1,14.05-11.17c.3-.18.61-.35.92-.52q-25.8,1.74-43.43,12a75.26,75.26,0,0,0-31.36,35.05c-.66,1.48-1.28,3-1.88,4.53a23.7,23.7,0,0,1,6.37-3.68C316.69,131.18,324,132.15,330.31,134.67Z"/><path class="cls-1" d="M331.58,227.31c6,3.17,9.62,9.7,12.36,15.67a68.45,68.45,0,0,1,6.13,32.31l3.25-6.3c2-3.85,4-7.67,5.93-11.55a42.5,42.5,0,0,0,4-11.62,32.69,32.69,0,0,0-1.53-16.2,44.46,44.46,0,0,1-6.31-12.84A83.64,83.64,0,0,1,352.32,202c-6.72,1-13.33,4.13-19.84,5.58-5,1.1-10.18,1.31-15-.41a26.84,26.84,0,0,1-11.1-7.62c-6.54-7.48-8.53-17.47-6.76-27.11a43.31,43.31,0,0,1,5.87-14.93,27.42,27.42,0,0,1,9.77-9.84,15,15,0,0,1,13.1-.78c4.34,1.84,7.7,5.41,10.32,9.24,5.55,8.1,9.6,19.53,5.65,29.13-3.09,7.52-12.13,13.69-20.36,10.74-8.5-3.05-11.31-13.15-10.87-21.34.24-4.49,1.49-9.34,5.32-12.1,3.3-2.37,7.7-2.16,11.23-.44a12.45,12.45,0,0,1,6.83,10.15,17.67,17.67,0,0,1-4.54,13.08c-1.26,1.46-3.37-.67-2.12-2.12a15.38,15.38,0,0,0,3.06-5.43c1.16-3.67.94-8.1-1.86-11-2.3-2.39-6-3.72-9.26-2.62-3.76,1.28-5.2,5.61-5.57,9.2a26.6,26.6,0,0,0,1.23,11.41c1.2,3.44,3.47,6.68,6.91,8.16a11.7,11.7,0,0,0,10.23-1,16,16,0,0,0,7.12-8.12,22.55,22.55,0,0,0,.28-13.53,40.76,40.76,0,0,0-5.87-12.67c-2.27-3.31-5.26-6.55-9.07-8.08-8.57-3.44-15.93,4.1-19.81,10.92-4.6,8.09-6.75,18-4.1,27.11,2.19,7.5,8,14.27,15.5,16.8,9.55,3.22,19-1.74,28.07-4.21A43.69,43.69,0,0,1,352,199q-.58-6-.59-12.74a119,119,0,0,1,1.86-21.9,1.27,1.27,0,0,1-.28-1c.78-7.2-4.34-13.07-9.52-17.38-9.1-7.57-23.1-14.73-34.71-8.48a23.71,23.71,0,0,0-7.21,6.13q-6,18.81-6,42.34a150.67,150.67,0,0,0,3.56,33.63c3.78,2.74,8.94,3.65,13.48,4C319,224.24,325.75,224.23,331.58,227.31Z"/><path class="cls-1" d="M554.94,120.3c6-3.59,12.91-7.41,16.25-13.9,2.62-5.09,2.69-12.19-2.07-16a1.25,1.25,0,0,1-.08-2H567.8a21.36,21.36,0,0,1-5,13c-8.22,10.25-22.55,11.91-33.52,17.94a64.57,64.57,0,0,0-7.3,4.67v18.88c3.7-2.95,7.52-5.77,11.36-8.52Q543.81,126.89,554.94,120.3Z"/><path class="cls-1" d="M699.92,117.64a36.49,36.49,0,0,0-4.6,21.39c.94,9.18,6.75,16.78,10,25.17a77.51,77.51,0,0,1,3.48,11.45V107A36.55,36.55,0,0,0,699.92,117.64Z"/><path class="cls-1" d="M578.28,147.55c5.29-7.06,15.31-6.7,23.09-5.19,8.2,1.59,17.73,5.07,19.79,14.21,1.67,7.4-1.86,15.89-8.56,19.6-7.4,4.08-16.83,2.22-23.11-3.06-3.52-3-6.33-7.39-6.53-12.09-.18-4.33,2.42-8.71,6.72-9.9a1.51,1.51,0,0,1,.8,2.9,6.07,6.07,0,0,0-3.94,3.62c-1.78,4.17.68,8.92,3.56,11.93a19.34,19.34,0,0,0,9.75,5.41c7.35,1.62,14.83-1.72,17.61-8.89a14.87,14.87,0,0,0,.48-9.91c-1.2-3.76-4.29-6.37-7.75-8.05a41.47,41.47,0,0,0-12-3.29,26.84,26.84,0,0,0-11.39.43,11.16,11.16,0,0,0-7.82,7.62c-1.18,4.15-.34,8.64.69,12.73.74,2.89,1.55,5.77,2.39,8.64l6.39,12.32a16.43,16.43,0,0,0,5,.93c11,.73,24.15-3.51,35.32-1.65a1.48,1.48,0,0,1-.23-1.19,64.87,64.87,0,0,0,1.48-10.92,69.51,69.51,0,0,0-.52-12.39l-19.37-37c-.35-.16-.7-.32-1.06-.45a26.08,26.08,0,0,0-11.55-1A50.26,50.26,0,0,0,579,128.67a54.6,54.6,0,0,0-25.3,28.46c-5.81,15.53-2.44,32.25-3.54,48.37-.53,7.76-2,15.58-5.79,22.47a31.23,31.23,0,0,1-14.67,13.67,24.72,24.72,0,0,1-7.77,2v22c11,2.91,23.95-3.7,28.89-13.86.85-1.74,3.44-.21,2.59,1.52a27.9,27.9,0,0,1-8.62,10.18,29.13,29.13,0,0,1-22.43,5.27l-.43-.1v16.09h47V196.23q0-7.38-.4-16.58t-.94-18.06q-.54-8.86-1.21-15.17h1.21l8.15,15.71C574.88,157,575.11,151.78,578.28,147.55Z"/><path class="cls-1" d="M675,93.5a40.61,40.61,0,0,1,8.1-5.09H661.59V114.9A40.74,40.74,0,0,1,675,93.5Z"/><path class="cls-1" d="M575.62,95.61c1.33,6.51-1.27,12.93-5.75,17.62-5.31,5.55-12.5,9-19,13q-11,6.87-21.44,14.66c-2.54,1.91-5.07,3.85-7.54,5.86v93.94c.48-.05,1-.11,1.46-.21a26.78,26.78,0,0,0,16.43-10.88c9.52-13.42,7.46-31.27,7.34-46.77-.06-8.17.36-16.49,2.88-24.33a55.48,55.48,0,0,1,9.19-17.1,57.1,57.1,0,0,1,32.64-20.64c5.14-1.08,10.92-1.66,16.13-.31L591.22,88.41H571.44A12.8,12.8,0,0,1,575.62,95.61Z"/><path class="cls-1" d="M545.06,109.48c5.7-2.25,11.38-5,15.34-9.86a17.86,17.86,0,0,0,4.38-11.21H521.94v32a66.17,66.17,0,0,1,5.79-3.57C533.26,113.76,539.21,111.79,545.06,109.48Z"/><path class="cls-1" d="M624.7,254.28a23.23,23.23,0,0,0,4.61,2.9c6.78,3.27,14.83,3.05,21.87.77a36.42,36.42,0,0,0,18.65-14.09c4.9-7,7.73-15.24,9.25-23.62a93.18,93.18,0,0,0,.78-28,67.5,67.5,0,0,0-3.51-14.84A115.42,115.42,0,0,0,670.11,164c-3.41-6.6-6.63-13.21-8.52-20.32v33.53q0,6.71.33,15.44t.74,17.25q.4,8.53.8,15h-.8L633,168.11a70,70,0,0,1-1.59,17.36,1.32,1.32,0,0,1-.53.83,21.89,21.89,0,0,1,12.59,8.27,28.16,28.16,0,0,1,4.71,22.9c-1.89,8.71-7.38,16.31-14.06,22a1.47,1.47,0,0,1-2,0,1.2,1.2,0,0,1-.75-.72,18.23,18.23,0,0,0-12.37-10.34,17.39,17.39,0,0,0-8.66.25L623.35,254A1.56,1.56,0,0,1,624.7,254.28Z"/><path class="cls-1" d="M702.93,220.18a77.19,77.19,0,0,0,4.65-32.88,76,76,0,0,0-7.88-28.46c-2.24-4.45-4.8-8.81-6.2-13.62A34.75,34.75,0,0,1,692.18,134a40.18,40.18,0,0,1,16.67-30.66V88.82c-.48-.15-1-.29-1.45-.41H691.89a36.54,36.54,0,0,0-20.95,13.64c-10.2,14-10.27,33.09-3.9,48.67,3.76,9.2,9.35,17.55,12.58,27s4.2,19.76,3.81,29.79c-.64,16.64-5.23,35.23-18.61,46.32-10.66,8.85-26.92,12-39.06,4.8l13.53,26.11h69.56V232.8a17.65,17.65,0,0,0-2.21,5,66.38,66.38,0,0,0-1.09,7.81,38,38,0,0,1-1.36,6.23,41.52,41.52,0,0,1-24.58,26.28c-1.8.69-2.58-2.21-.79-2.89A37,37,0,0,0,690.45,268a38.58,38.58,0,0,0,11.75-20.47c1-4.72.73-9.55,2.82-14a27.24,27.24,0,0,1,3.83-5.8V210.8a78.26,78.26,0,0,1-3,10.18C705.16,222.78,702.26,222,702.93,220.18Z"/><path class="cls-1" d="M632.47,214a27.09,27.09,0,0,1,3.68,19.32c.3-.32.62-.63.91-1,6-6.84,10-16,8.46-25.25a23.89,23.89,0,0,0-5-11.39A20.4,20.4,0,0,0,629.23,189c-9.6-2.17-19.66.88-29.28,1.51a39.07,39.07,0,0,1-9.64-.23l7.9,15.24a26.35,26.35,0,0,1,11.4-3.1A25.59,25.59,0,0,1,632.47,214Z"/><path class="cls-1" d="M619.36,225.48a21,21,0,0,1,13.33,9.57,23,23,0,0,0,.67-10.27c-1.24-7.74-6.11-14.69-13.48-17.67a24.16,24.16,0,0,0-20.29,1L608.86,226A20.87,20.87,0,0,1,619.36,225.48Z"/><path class="cls-1" d="M803.83,251.52c-4.56,3.48-9.14,6.94-13.68,10.43a88.39,88.39,0,0,0-10.36,9.15c-3.69,3.87-7.07,8.51-8.52,13.62h12.42c1.42-.88,2.83-1.77,4.23-2.69,15.65-10.29,30.48-24.16,38-41.48a67.54,67.54,0,0,1-8.55.64Z"/><path class="cls-1" d="M896.68,124a87.58,87.58,0,0,1-10.39,47.69,88,88,0,0,0,18.13-30.1,1.51,1.51,0,0,1,2.2-.89,22.89,22.89,0,0,1,6.61,6.76,85.69,85.69,0,0,0-6.79-16.37,75.51,75.51,0,0,0-10.68-14.92l0,.21C896.2,118.93,896.5,121.47,896.68,124Z"/><path class="cls-1" d="M892.4,218.74a79.43,79.43,0,0,1,19,6.66q6.51-18.56,6.52-43c0-.9,0-1.78,0-2.67A61.49,61.49,0,0,1,892.4,218.74Z"/><path class="cls-1" d="M887.62,218.2a54.87,54.87,0,0,0,14.8-12.51,57.94,57.94,0,0,0,13.1-31.06c1-10.2-.42-23.35-8.95-30.23a91,91,0,0,1-27.18,38c-1.21,1-3.45-.36-2.35-1.82A83.09,83.09,0,0,0,886.33,165a84.71,84.71,0,0,0,7.46-30.87A82.68,82.68,0,0,0,893,118c-.28-1.85-.58-3.74-1-5.59q-2-1.92-4.23-3.69a69.29,69.29,0,0,1-4.21,11.14c-6.18,13-15.78,23.82-25.86,34,.12.28.25.54.37.82q4.77,11.76,4.77,29.61,0,28.44-11,42.46a58.24,58.24,0,0,0,14.5,12.73,57,57,0,0,0,33.38,8.26,86.19,86.19,0,0,0,5.36-8.39,85.23,85.23,0,0,0,5.21-11.12A77.13,77.13,0,0,0,888,220.94C886.66,220.73,886.58,218.8,887.62,218.2Z"/><path class="cls-1" d="M788.93,259.13q11.75-9,23.51-17.91h-8.12v-.31c-1.91,0-3.82,0-5.73-.06-11.11-.51-22.19-3.5-30.76-10.86-7.41-6.34-12.59-15.69-12-25.64a1.53,1.53,0,0,1,2.26-1.29,81.91,81.91,0,0,0,41.72,6,94.25,94.25,0,0,1-18.44-9.21c-12.59-8.23-23-20.34-26-35.41-2.67-13.63.48-28.92,11.26-38.33.75-.65,2.34-.56,2.51.66.88,6.32,1.78,12.65,3.21,18.88,2.4,10.47,6.46,20.9,14.42,28.42a33.59,33.59,0,0,0,17.55,9V131.24h15.44q14.5,0,24,5.84A34.29,34.29,0,0,1,856.37,151a172.67,172.67,0,0,0,15.37-17.52c6-8,11-16.93,13.5-26.68a81.47,81.47,0,0,0-12.3-7.46q-22-10.89-53.71-10.88h-68V284.72h16.9a25.78,25.78,0,0,1,1.56-4.58C773.7,271.43,781.49,264.82,788.93,259.13Z"/><path class="cls-1" d="M758.81,206.56a26.4,26.4,0,0,0,3.69,12.52c4.89,8.36,13.24,14,22.44,16.64a65.61,65.61,0,0,0,19.38,2.21V211.45A85.41,85.41,0,0,1,758.81,206.56Z"/><path class="cls-1" d="M888.4,250.41A60.74,60.74,0,0,1,850,229.06q-7.71,8.26-20.59,10.91c-.56,1.39-1.15,2.78-1.8,4.14-8.29,17.37-22.52,30.2-38.35,40.61h25.58q31.29,0,54.45-11.34a81.07,81.07,0,0,0,28.18-22.51A60.31,60.31,0,0,1,888.4,250.41Z"/><path class="cls-1" d="M774.79,162.34c-4.77-10.05-6.61-21.09-8.16-32A33.89,33.89,0,0,0,758.24,147c-2.76,13.56,1.61,27.57,10.46,38,9.26,10.91,22.21,18,35.62,22.59V186.15a30,30,0,0,1-7.29-1.91C787,180.2,779.36,172,774.79,162.34Z"/><path class="cls-1" d="M982.43,278.27c-8.73,3.67-19.11,6.24-28.49,3.73-.28-.07-.56-.17-.84-.25v3h116.55V241.49h-50.49a68,68,0,0,1-15.52,22.75A69.13,69.13,0,0,1,982.43,278.27Z"/><path class="cls-1" d="M962,131.15a47.45,47.45,0,0,0-8.92-8.82V141A43.33,43.33,0,0,1,962,131.15Z"/><path class="cls-1" d="M980.4,239.07c6.16-6.51,10.1-15.14,9.52-24.18a73.49,73.49,0,0,0-9.2-.77c-9.2-.27-18.42-.17-27.62-.19v36.52a19.74,19.74,0,0,0,3.45.23C965.68,250.53,974.24,245.57,980.4,239.07Z"/><path class="cls-1" d="M1069.65,105.55V88.41h-12.21a26.48,26.48,0,0,1-.43,13.46,37.3,37.3,0,0,1-3.25,7.87c-1.35,2.46-3,4.82-3.84,7.53a16.64,16.64,0,0,0,2.29,13.71h9.56a45.33,45.33,0,0,1,.66-7.35A47.78,47.78,0,0,1,1069.65,105.55Z"/><path class="cls-1" d="M1046.71,117.72a24.93,24.93,0,0,1,3.12-7.18,42.38,42.38,0,0,0,3.78-7.82c1.54-4.55,2.13-9.66.76-14.31h-29.44a28,28,0,0,0-2.9,7.46c-1.29,5.62-.43,11.49-2.52,17-3.32,8.7-10.86,14.68-18.3,19.91,1.69,1.55,3.35,3.19,4.93,4.93V131h42.62A19.78,19.78,0,0,1,1046.71,117.72Z"/><path class="cls-1" d="M964.41,129.37a37.78,37.78,0,0,1,5-2.92,27.21,27.21,0,0,1,15.2-2.8c5.47.71,10.19,3.53,14.33,7.06A72.7,72.7,0,0,0,1011,120.65a25.49,25.49,0,0,0,7.05-15.56,83.16,83.16,0,0,1,.84-9,30.17,30.17,0,0,1,2.6-7.63H953.1v30.24A51.58,51.58,0,0,1,964.41,129.37Z"/><path class="cls-1" d="M993,215.46a32.25,32.25,0,0,1-3,14.93,41.91,41.91,0,0,1-21.63,20.75,30.75,30.75,0,0,1-15.18,2.32v25.09a24.87,24.87,0,0,0,6.87,1.37c8.67.45,17.65-2.38,25.32-6.26a66,66,0,0,0,30.63-32.17h-9.78V221.87c-.31-.28-.63-.56-1-.82A29.52,29.52,0,0,0,993,215.46Z"/><path class="cls-1" d="M1015.79,168.13a18.82,18.82,0,0,1-1.69,3.68c-.71,1.18-1.67,2.22-2.28,3.46-.76,1.56-.11,2,1.16,2.88,1.11.76,2.19,1.56,3.23,2.4a46.28,46.28,0,0,1,5.79,5.58,49,49,0,0,1,8.4,13.65,42.58,42.58,0,0,1,1.61,4.65H1065V161.86h-48.06A21.51,21.51,0,0,1,1015.79,168.13Z"/><path class="cls-1" d="M1014.83,183.28c-1-.86-2.09-1.67-3.2-2.43a7.7,7.7,0,0,1-2.77-2.48c-1.38-2.6.73-5.22,2.13-7.26a17,17,0,0,0,2.78-7.53c.07-.58.1-1.15.13-1.72h-7.76V142.35a77.61,77.61,0,0,0-7.53-7.9,1.47,1.47,0,0,1-1.72-1.55c-3.75-3.18-8.06-5.82-13-6.34A25.19,25.19,0,0,0,969,130a33.46,33.46,0,0,0-3.15,2,1.61,1.61,0,0,1-1.54,1.14A40.73,40.73,0,0,0,953.1,147v63.93l16,.08c9.86.05,20.37-.54,29.74,3.07a31.15,31.15,0,0,1,7.3,4V204.43h9.22a31.62,31.62,0,0,0-5.69-4.9c-7.28-4.9-16.16-6.2-24.78-6.12-4.53,0-9.14.72-13.64-.15a16.52,16.52,0,0,1-9.36-5.54,20,20,0,0,1-2.78-21.2,26,26,0,0,1,18.09-14.77c7.46-1.51,16.08,1.33,19.57,8.52,1.91,3.94,1.86,8.48,1.52,12.74s-1.17,8.36-3.36,11.94a15.36,15.36,0,0,1-6.08,5.59,49.88,49.88,0,0,1,13.49,2.16,35.78,35.78,0,0,1,16.87,11.73h9.68a45,45,0,0,0-8.51-15.6A46.92,46.92,0,0,0,1014.83,183.28Z"/><path class="cls-1" d="M1064.78,131h4.87V111.52A44.06,44.06,0,0,0,1064.78,131Z"/><path class="cls-1" d="M976.35,189.55c-5.77-4.77-8.21-14.74-3.83-21.16,3.65-5.33,12.14-7.18,16.94-2.33a1.5,1.5,0,0,1-2.12,2.12,6.45,6.45,0,0,0-3.39-1.82,9.16,9.16,0,0,0-7.52,2.11c-2.53,2.19-3.36,5.66-3.08,8.89a15.42,15.42,0,0,0,4.37,9.39,8,8,0,0,0,8.72,1.65c7.11-2.62,8.72-11,9-17.66.15-3.82-.07-7.77-2.45-11a14.18,14.18,0,0,0-8.1-5.11c-7.34-1.72-15.08,2.27-19.74,7.79-4.38,5.19-6.33,12.45-3.68,18.88a15.47,15.47,0,0,0,6,7.25c3.19,2,6.9,2.18,10.56,2.06A10.84,10.84,0,0,1,976.35,189.55Z"/><path class="cls-1" d="M1234.14,113c-2.38.77-4.13,2.73-5.5,4.74-2.59,3.8-4.68,7.86-7.49,11.53A74.42,74.42,0,0,1,1194.74,151a35.22,35.22,0,0,1-.37,3.84,51.82,51.82,0,0,0,40.43-8.33,52.68,52.68,0,0,0,12.5-12.56,49.47,49.47,0,0,0-7.85-19.6c-.31-.44-.63-.87-1-1.3A6.34,6.34,0,0,0,1234.14,113Z"/><path class="cls-1" d="M1170.58,173.65a12.82,12.82,0,0,1,2.82,2.56c5.73,7.08,10.42,15.16,17.4,21.14,6.15,5.27,14.83,8.78,22.82,5.89l.26-.07c-3.64-2.28-6.27-5.87-8.47-9.54-2.77-4.64-5.17-9.45-8.89-13.43a26.17,26.17,0,0,0-13.35-8.08,20,20,0,0,0-3.79-.45,37.8,37.8,0,0,1-7.89,1.52C1171.18,173.33,1170.88,173.49,1170.58,173.65Z"/><path class="cls-1" d="M1202.08,143.27A71,71,0,0,0,1221.93,123c2.57-4,4.57-8.72,8.61-11.5a9.69,9.69,0,0,1,1.54-.87,1.53,1.53,0,0,1-.43-1c-.31-4.68-5-7.77-9.36-8.18-4.83-.47-9.24,2.31-12.43,5.68-3.73,3.93-6.06,8.87-8.34,13.72-2.46,5.23-5,10.27-8.84,14.68-.44.52-.9,1-1.37,1.54a18.93,18.93,0,0,1,3.44,10.55A71.11,71.11,0,0,0,1202.08,143.27Z"/><path class="cls-1" d="M1246.07,283.7c0,.34.06.68.1,1h26.11l-19-28.32c-1.46,4.44-3.73,8.75-5.27,13A33.18,33.18,0,0,0,1246.07,283.7Z"/><path class="cls-1" d="M1214.42,206.13a21.66,21.66,0,0,1-13.23.25c-8.16-2.29-14.5-8.06-19.69-14.54-2.75-3.43-5.27-7-7.92-10.55a28.13,28.13,0,0,0-3.88-4.68,7.45,7.45,0,0,0-2.1-1.26,1.5,1.5,0,0,1-.79-.1.87.87,0,0,0-.65.39,1.68,1.68,0,0,1-.24.29,1.43,1.43,0,0,1,1.74,1q3.27,11,6.55,21.92c1.49,5,3.11,10,6.13,14.33a17.24,17.24,0,0,0,13.06,7.4,30.94,30.94,0,0,0,16.46-3.81c2.32-1.26,4.65-3,5.68-5.54a6.71,6.71,0,0,0-.21-6A1.45,1.45,0,0,1,1214.42,206.13Z"/><path class="cls-1" d="M1220.59,156.67a55.48,55.48,0,0,1-26.82,1.08A17.29,17.29,0,0,1,1187,168c-.72.49-1.48,1-2.26,1.38a28.37,28.37,0,0,1,11.93,6.71c4,3.64,6.84,8.13,9.48,12.79,2.54,4.48,5.21,9.5,9.88,12.08l.38.2-1.34-2a76.06,76.06,0,0,0,17.79-13.5,55.19,55.19,0,0,0,11.48-17.52,56.78,56.78,0,0,0,4-21.75,72.29,72.29,0,0,0-.47-8.34q-.72.91-1.47,1.8A54.71,54.71,0,0,1,1220.59,156.67Z"/><path class="cls-1" d="M1143.6,261.34a219.07,219.07,0,0,1,8.6-23.7c1.5-3.57,3.1-7.09,4.87-10.53V213.29h8c3.22-5.66,6-12.1,3.55-18.49a1.23,1.23,0,0,1,.71-1.67q-2.31-7.69-4.6-15.39a1.32,1.32,0,0,1,.37-1.43c-1.12.16-2.37-1-1.57-2.18a4.8,4.8,0,0,1,.58-.72h-7.08V143.85A53.61,53.61,0,0,1,1155,137c-1.61-6.89-1.58-14.12,1.32-20.66a21.87,21.87,0,0,1,13-12.22c1.84-.59,2.63,2.31.79,2.89-6.85,2.18-11.27,8.74-12.72,15.53a28.46,28.46,0,0,0-.33,9.34v-3.36h10.47c2,0,3.83.08,5.59.23-1.23-5.71,2.32-11.55,4.92-16.56,2.21-4.26,4.78-12.28-.86-15.11C1174.48,95.76,1171,96,1168,96a42.52,42.52,0,0,0-9.53,1.14,24.22,24.22,0,0,0-14.27,9.31c-6.32,9-6.68,21-5.19,31.52a106.89,106.89,0,0,0,5.23,21.06c2.38,6.64,5.73,12.78,8.61,19.2,2.56,5.7,4.6,11.79,4.09,18.13-.44,5.58-2.65,10.82-7.1,14.32h0l-.2.17a1.17,1.17,0,0,1-1.16.22,21,21,0,0,1-13.75-2.47c-8.33-4.54-13.08-13.25-17-21.52-3.68-7.76-7.18-17.59-2.22-25.6,1-1.64,3.61-.13,2.59,1.51-2.42,3.92-2.41,8.51-1.37,12.87a56.19,56.19,0,0,0,4.5,11.6,65.27,65.27,0,0,0,6.44,10.94c4.76,6.24,12.5,11.45,20.68,9.67,5-4,6.28-11.1,5.45-17.11-1.07-7.82-5.36-14.77-8.62-21.8-5.74-12.36-9.68-26.26-9.85-40-.13-11,2.63-23,11.76-30,5.06-3.89,11.36-5.55,17.63-6a46.43,46.43,0,0,1,9.79.14,10.31,10.31,0,0,1,7.47,4.18c3,4.44,1.3,10.59-.75,15-2.26,4.91-7,11-4.92,16.65,5.17.81,9.19,2.39,12,4.76.34.28.64.59,1,.89a44.66,44.66,0,0,0,4.09-5.11c6.42-9.52,8.76-22.18,19.11-28.64a16.83,16.83,0,0,1,8.36-2.61,72,72,0,0,0-8.08-3.54q-17.71-6.51-44.44-6.51H1104v79.83a30.23,30.23,0,0,1,3.5-9.61,38.26,38.26,0,0,1,7.43-9.23c2.71-2.45,6.25-4.35,9.93-3,3.16,1.18,5.3,4,6.5,7,1.44,3.69.95,7.66.09,11.43-.93,4.07-2.36,8.08-2.25,12.3A21.55,21.55,0,0,0,1132,187a22.6,22.6,0,0,0,16.09,11.64c1.91.3,1.09,3.19-.8,2.9a22.52,22.52,0,0,1-4.88-1.35,26.4,26.4,0,0,1-14.23-14.24,23.84,23.84,0,0,1-1.9-10.1c.17-4.23,1.61-8.24,2.49-12.35.8-3.72,1-7.46-1.07-10.81-1.63-2.7-4.57-4.6-7.71-3.15a16.7,16.7,0,0,0-4.75,3.87,35.89,35.89,0,0,0-3.69,4.56,29.09,29.09,0,0,0-4.55,10.59c-2.74,13.94,8.68,24.68,16.45,34.65,4.07,5.23,7.87,10.88,9.47,17.41a34.58,34.58,0,0,1-1.56,20.48c-4.82,12.61-15,22-27.29,27v16.65h39.19c0-.05,0-.11-.07-.17C1140.27,277.11,1141.45,268.81,1143.6,261.34Z"/><path class="cls-1" d="M1146.9,260.77c-2.22,7.28-3.7,15.3-1,22.65.16.44.34.87.54,1.3h10.61V234c-.58,1.25-1.14,2.5-1.68,3.77A232.83,232.83,0,0,0,1146.9,260.77Z"/><path class="cls-1" d="M1130.53,232.18a30.58,30.58,0,0,0-4.17-19.52c-3.38-5.82-7.92-10.82-12.1-16.06-4-5-7.85-10.36-9.66-16.59-.23-.82-.42-1.65-.57-2.47v87.32C1117.34,259.09,1128.59,246.94,1130.53,232.18Z"/><path class="cls-1" d="M1243.16,277a43.32,43.32,0,0,1,3.33-11.76c1.6-3.82,3.67-7.92,4.66-12.1l-6.4-9.58a14.9,14.9,0,0,0-6.22,3.82c-3.54,3.58-5.38,8.55-7.59,13a40.79,40.79,0,0,1-8.28,11.46,40,40,0,0,1-13.21,8.33l2.67,4.58H1228A30.81,30.81,0,0,0,1239.76,267c.44-1.89,3.34-1.08,2.9.79a33.76,33.76,0,0,1-10,17h10.39A35.45,35.45,0,0,1,1243.16,277Z"/><path class="cls-1" d="M1221.87,268.35a40.63,40.63,0,0,0,7-10.47c2-4,3.75-8.11,6.62-11.55A17.87,17.87,0,0,1,1243,241l-23.83-35.63-.62-.14a9.67,9.67,0,0,1,.09,6.18,13.71,13.71,0,0,1-6.25,7.39,33.68,33.68,0,0,1-18.21,4.86,20.3,20.3,0,0,1-15.57-7.75c-3-3.81-4.8-8.35-6.29-12.94a34.16,34.16,0,0,1-3.82,10.35h2l37.43,64.25A37,37,0,0,0,1221.87,268.35Z"/><path class="cls-1" d="M630.83,186.3c-.7-.17-1.42-.32-2.14-.44A1.61,1.61,0,0,0,630.83,186.3Z"/><path class="cls-1" d="M1104,177.54v-9.3A26.18,26.18,0,0,0,1104,177.54Z"/><path class="cls-1" d="M1165.14,176.31a1.4,1.4,0,0,0,.78-.38A1.55,1.55,0,0,0,1165.14,176.31Z"/><path class="cls-1" d="M395.6,129c-.45,0-.9-.07-1.36-.09C394.69,129,395.14,129,395.6,129Z"/><path class="cls-1" d="M239.32,148a28.93,28.93,0,0,0,4-11.11A59.37,59.37,0,0,1,239.32,148Z"/></g></g></svg>