<?xml version="1.0" encoding="utf-8"?>
<!-- Generator: Adobe Illustrator 26.0.2, SVG Export Plug-In . SVG Version: 6.00 Build 0)  -->
<svg version="1.1" id="Layer_1" xmlns="http://www.w3.org/2000/svg" xmlns:xlink="http://www.w3.org/1999/xlink" x="0px" y="0px"
	 viewBox="0 0 560 560" style="enable-background:new 0 0 560 560;" xml:space="preserve">
<style type="text/css">
	.st0{fill:#FFFFFF;}
</style>
<path d="M379.47,41.75C379.47,41.75,379.47,41.75,379.47,41.75C379.47,41.76,379.48,41.76,379.47,41.75L379.47,41.75z"/>
<path class="st0" d="M517.49,353.13c-16.92-81.42-87.96-111.82-111.84-117.23c13.8-26.28,23.95-49.63,29.47-63.02
	c2.32-5.62-1.89-11.76-7.96-11.65c-20,0.37-60.75,1.2-101.15,2.49c-2.27,0.07-3.79-2.33-2.73-4.35
	c7.29-13.91,14.63-31.63,25.69-68.51c12.9-42.99,16.1-70.56,6.98-76.85c-11.77-8.12-41.86,13.37-66.04,32.72
	c-24.18,19.34-17.25,25.85-17.25,25.85s19.58,20,26.03,42.57c4.48,15.67,4.55,34.28,4.18,44.19c-0.11,2.95-2.44,5.33-5.39,5.51
	c-41.96,2.44-85.75,9.26-106.5,12.78c-6.8,1.16-10.92,8.14-8.64,14.65c4.67,13.35,15.12,38.86,38.25,83.19
	c20.37,39.04,43.86,67.05,61.54,84.84c1.65,1.66,1.96,4.25,0.7,6.22c-13.26,20.84-38.85,43.63-86.19,36.97
	c-77.29-10.88-85.36-81.94-83.59-109.15c0.24-3.63-2.43-6.77-6.04-7.18c-22.09-2.57-51.88,14.21-64.22,21.92
	c-3.47,2.17-5.07,6.4-3.87,10.32c8.51,27.85,48.75,134.47,165.82,134.47c117.69,0,186.78-191.89,187.47-193.61v0c0,0,0,0,0,0h0
	c21.43,9.04,74.5,29.18,72.89,111.4c-1.13,57.5-54.36,99.58-78.45,109.98c-6.07,2.62-9.68,8.94-8.84,15.5
	c1.14,8.88,4.24,21.02,12.53,30.1c8.78,9.63,21.66,15.8,30.61,19.22c6.33,2.41,13.45,1.38,18.83-2.73
	C465.22,524.28,539.34,458.25,517.49,353.13z M303.31,61.89c10.98-13.08,31.08-27.13,38.79-30.62c1.44-0.65,3.02,0.61,2.69,2.16
	l-3.82,20.74c-0.37,1.63-1.5,3-3.03,3.67l-20.23,9.42c-2.4,1.22-2.01,4.08-0.86,6.52l12.49,18.27c0.96,1.68,1.16,3.68,0.53,5.5
	l-4.23,11.62c-0.74,2.16-3.82,2.08-4.44-0.12c-3-10.59-9.14-28.82-18.12-42.01C301.98,65.46,302.08,63.35,303.31,61.89z
	 M403.69,187.94l-21.44,37.35c-1.55,2.7-4.59,4.17-7.67,3.71c-11.16-1.65-35.33-3.54-51.01-0.41
	c-20.15,4.03-29.34,10.53-32.28,15.92c-3.34,6.11,0.89,13.13,3.67,16.74c1.2,1.55,3.41,1.92,5.06,0.85
	c6.52-4.23,19.18-12.37,35.57-13.76c14.16-1.2,20.62,2.6,24.52,3.38c1.76,0.35,2.65,2.33,1.76,3.88
	c-5.81,10.11-24.57,41.96-45.85,59.23c-3.41,2.76-8.26,2.85-11.82,0.28c-30.98-22.42-41.7-29.53-59.96-53.88
	c-15.19-20.25-24.41-48.45-27.68-59.63c-0.75-2.59,0.91-5.25,3.56-5.7c13.79-2.35,54.18-8.97,88.8-11.91
	c34.82-2.96,78.92-0.81,92.63-0.01C403.51,184.09,404.67,186.24,403.69,187.94z"/>
</svg>
