<svg xmlns="http://www.w3.org/2000/svg" width="560" height="560" viewBox="0 0 560 560"><path d="M379.47,41.75h0Z"/><path d="M517.49,353.13c-16.92-81.41-87.95-111.82-111.83-117.22,13.79-26.28,23.95-49.64,29.46-63a8.44,8.44,0,0,0-8-11.65c-20,.37-60.75,1.19-101.14,2.48a3,3,0,0,1-2.74-4.34c7.29-13.91,14.63-31.63,25.7-68.52,12.89-43,16.1-70.55,7-76.84-11.77-8.13-41.86,13.37-66,32.72s-17.25,25.85-17.25,25.85,19.58,20,26,42.57c4.47,15.68,4.55,34.28,4.17,44.19a5.73,5.73,0,0,1-5.39,5.51c-42,2.44-85.75,9.26-106.49,12.78a11.14,11.14,0,0,0-8.65,14.65c4.67,13.35,15.13,38.86,38.26,83.19a350.56,350.56,0,0,0,61.54,84.84,5,5,0,0,1,.7,6.22c-13.26,20.84-38.86,43.63-86.19,37-77.29-10.88-85.36-81.94-83.59-109.15a6.8,6.8,0,0,0-6-7.19c-22.08-2.57-51.88,14.21-64.22,21.93a9.05,9.05,0,0,0-3.87,10.32c8.51,27.84,48.76,134.47,165.82,134.47,117.69,0,186.78-191.89,187.47-193.61h0c21.44,9,74.5,29.18,72.89,111.4-1.13,57.5-54.36,99.58-78.45,110a14.83,14.83,0,0,0-8.84,15.5c1.14,8.88,4.25,21,12.53,30.09,8.79,9.63,21.66,15.81,30.61,19.22a19.5,19.5,0,0,0,18.83-2.73C465.22,524.28,539.34,458.25,517.49,353.13ZM303.31,61.89c11-13.08,31.08-27.13,38.78-30.62a1.93,1.93,0,0,1,2.69,2.16L341,54.17a5.31,5.31,0,0,1-3,3.67L317.7,67.26c-2.41,1.22-2,4.08-.87,6.52l12.49,18.27a6.74,6.74,0,0,1,.54,5.51l-4.24,11.62a2.33,2.33,0,0,1-4.44-.12c-3-10.6-9.14-28.82-18.12-42A4.26,4.26,0,0,1,303.31,61.89ZM403.69,187.94l-21.44,37.35a7.55,7.55,0,0,1-7.67,3.71c-11.16-1.64-35.33-3.54-51-.41-20.15,4-29.34,10.53-32.28,15.92-3.34,6.11.89,13.13,3.67,16.73a3.79,3.79,0,0,0,5.06.86c6.52-4.23,19.18-12.37,35.57-13.76,14.16-1.19,20.62,2.6,24.52,3.38a2.63,2.63,0,0,1,1.76,3.88c-5.81,10.1-24.58,42-45.85,59.23a9.72,9.72,0,0,1-11.82.28c-31-22.41-41.7-29.52-60-53.87-15.19-20.25-24.41-48.45-27.68-59.64a4.51,4.51,0,0,1,3.56-5.7c13.79-2.35,54.18-9,88.8-11.91,34.82-3,78.91-.81,92.63,0A2.65,2.65,0,0,1,403.69,187.94Z" fill="currentColor"/></svg>