<?xml version="1.0" encoding="utf-8"?>
<!-- Generator: Adobe Illustrator 26.0.2, SVG Export Plug-In . SVG Version: 6.00 Build 0)  -->
<svg version="1.1" xmlns="http://www.w3.org/2000/svg" xmlns:xlink="http://www.w3.org/1999/xlink" x="0px" y="0px"
	 viewBox="0 0 1080 1080" style="enable-background:new 0 0 1080 1080;" xml:space="preserve">
<style type="text/css">
	.st0{display:none;}
	.st1{display:inline;}
	.st2{fill:#FFFFFF;}
	.st3{display:inline;fill:none;stroke:#000000;stroke-width:37;stroke-miterlimit:10;}
	.st4{display:inline;fill:none;stroke:#000000;stroke-width:25;stroke-miterlimit:10;}
	.st5{fill:none;stroke:#000000;stroke-width:37;stroke-miterlimit:10;}
</style>
<g id="wonder" class="st0">
	<g class="st1">
		<g>
			<path class="st2" d="M308.9,620.1c20.3,0,67.6,6.6,67.6,67.6c0,37.3-30.3,67.6-67.6,67.6s-67.6-30.3-67.6-67.6
				C241.3,650.4,271.7,620.1,308.9,620.1L308.9,620.1z M308.9,571.4c-64.2,0-116.3,52.1-116.3,116.3S244.7,804,308.9,804
				S425.2,752,425.2,687.7C425.2,612.5,373.2,571.4,308.9,571.4L308.9,571.4z"/>
		</g>
		<g>
			
				<rect x="255.1" y="454.4" transform="matrix(4.381290e-02 -0.999 0.999 4.381290e-02 -168.2771 781.7615)" class="st2" width="138.2" height="48.7"/>
		</g>
		<g>
			
				<rect x="418.6" y="521.7" transform="matrix(0.8069 -0.5906 0.5906 0.8069 -227.6227 395.6779)" class="st2" width="145.6" height="48.7"/>
		</g>
		<g>
			
				<rect x="507.1" y="642.1" transform="matrix(0.1961 -0.9806 0.9806 0.1961 -278.1011 1099.3276)" class="st2" width="48.7" height="154.4"/>
		</g>
		<g>
			<path class="st2" d="M485.2,923.7l-16.5,11.9h0c-4.9,0.2-9.9,0.3-14.9,0.3c-6.8,0-13.5-0.2-20.2-0.5L358.4,831l39.5-28.5
				L485.2,923.7z"/>
		</g>
		<g>
			<path class="st2" d="M81.7,758.8l-0.4,0.1l-0.6-2.1C81.1,757.5,81.4,758.1,81.7,758.8z"/>
		</g>
		<g>
			<circle class="st2" cx="35.7" cy="839.7" r="30.5"/>
		</g>
		<g>
			<circle class="st2" cx="135" cy="963.8" r="30.5"/>
		</g>
		<g>
			<circle class="st2" cx="288.4" cy="1036" r="30.5"/>
		</g>
		<g>
			<path class="st2" d="M1074.7,256.5l-34.6-40.6c-0.3,0.4-41.2,48.1-82.7,82.4c-7.5,6.2-14.9,12-22.2,17.3
				c-22.6-41.6-47.2-74.1-68.2-98c3.7-2.9,7.3-6,11-9.1c42.1-35.9,81.1-76.8,82.3-78.3L920.5,94c-0.3,0.4-35.8,44.8-74.6,77.8
				c-4.4,3.7-8.8,7.3-13.1,10.7c-28.4-26.3-49.1-38.8-50.3-39.5l-33.5,34.4c0.2,0.1,22.3,15.8,42.2,33.1
				c-25.1,13.9-47.5,20.3-65.4,18.2c-7.5-0.9-15.2-1.1-22.9-0.6c-17.7-13.1-36.4-24.8-56.1-35c95.2-29.8,169.4-149.9,172.9-155.6
				l-44.4-24.1C774.5,15,686,161.6,591.6,151.2c-17.7-2-35.2-0.7-52.2,3.8c-27.6-5.7-56.3-8.8-85.6-8.8
				c-231.5,0-419.2,187.7-419.2,419.2c0,69,16.6,134,46.1,191.4c0.3,0.7,0.7,1.3,1,1.9C151.6,893,292,984.6,453.8,984.6
				c231.5,0,419.2-187.7,419.2-419.2c0-56.2-11.1-109.8-31.1-158.7c22.9-1.5,47.3-8.7,72.9-21.5c8.9,21.1,17,44.2,23.6,69.3
				c26.3,98.7,10.6,189-7.2,247.3c-19.5,64.1-45.9,105-46.1,105.4l40.8,26.6c1.2-1.8,29.8-46,51.4-116.1
				c20-64.8,37.6-165.2,8.2-275.7c-8-29.9-17.7-57.2-28.5-82c10.4-7.2,20.9-15.3,31.6-24.1C1033.7,298.4,1073.4,258.1,1074.7,256.5z
				 M795.2,709.6c-18.6,44.1-45.4,83.7-79.4,117.8c-34,34-73.7,60.8-117.8,79.4c-41.1,17.4-84.5,27.1-129.3,28.8h0
				c-4.9,0.2-9.9,0.3-14.9,0.3c-6.8,0-13.5-0.2-20.2-0.5c-42.9-2.3-84.5-11.9-124-28.6c-23.6-10-45.9-22.3-66.8-36.8l18.5-32.8
				l-42.4-23.9l-14.6,25.9c-4.2-3.8-8.4-7.8-12.4-11.9c-25-25-46-52.9-62.8-83.5l33.5-10.5L148,687l-39.7,12.5
				c-16.6-42.6-25-87.7-25-134c0-10.7,0.4-21.3,1.4-31.9l95.3,76.9l30.6-37.9l-106.6-86l-16,19.8c4.7-29.2,12.8-57.6,24.4-85.1
				c18.7-44.1,45.4-83.7,79.4-117.8c34-34,73.7-60.8,117.8-79.4c45.6-19.3,94.2-29.1,144.2-29.1c4.6,0,9.3,0.1,13.9,0.3
				c-8.8,7.8-17.3,16.6-25.5,26.3c-31.4,37.2-47.9,75.7-48.6,77.3l44.8,19.1c0.5-1.1,38.5-88,103.4-112.5
				c19.2,4.7,38,10.9,56.3,18.6c14.9,6.3,29.2,13.5,43.1,21.6c-20,9.6-40.6,23.1-61.7,40.5c-37,30.6-62,62.3-63,63.6l38.3,30
				c20.6-26.2,78.8-86.4,134.9-100.2c9.1,7.5,17.8,15.5,26.2,23.8c16.6,16.6,31.5,34.5,44.5,53.7c-96.8,9.7-155.5,66.4-158.4,69.3
				l34.1,34.7c0.2-0.2,18.2-17.5,49.7-32.8c32.4-15.8,66.6-23.8,101.9-23.9c2.7,5.5,5.2,11.1,7.6,16.8
				c19.3,45.7,29.1,94.2,29.1,144.2C824.3,615.5,814.5,664,795.2,709.6z M823.1,357.7c-1.8-0.2-3.6-0.4-5.4-0.6
				c-17-29.7-37.5-57-61-81.5c22-4.2,45.6-14,70.6-29.5c0.6,0.7,1.3,1.4,1.9,2.1c19.7,22.1,43.2,53,64.7,93
				C867.4,354.5,843.5,360.2,823.1,357.7z"/>
		</g>
	</g>
</g>
<g id="motion" class="st0">
	<g class="st1">
		<g>
			<path d="M564.6,726.7c-3.2,0-6.4-0.4-9.6-1.2c-15-3.6-26.4-15.3-29.6-30.4C502.2,587.9,449,520.9,419.4,490.6
				c-9.1-9.4-13.1-22.6-10.7-35.4c2.4-12.8,11-23.7,22.9-29l197.7-89c11.1-5,23.7-4.7,34.6,0.9c10.9,5.6,18.5,15.6,21,27.6
				c11.8,57.2,26.6,205.4-89.6,346.5C587.6,721.5,576.4,726.7,564.6,726.7z M645.7,372c-0.3,0-0.5,0.1-0.7,0.2l-197.7,89
				c-0.2,0.1-0.8,0.3-0.9,1.2c-0.2,0.8,0.3,1.3,0.4,1.5c32.5,33.3,90.7,106.6,116,223.3c0.1,0.4,0.2,1,1.2,1.2
				c1,0.2,1.4-0.2,1.6-0.5c105.7-128.3,92.3-262.6,81.6-314.4c0-0.2-0.2-0.8-0.8-1.1C646.2,372.1,646,372,645.7,372z"/>
		</g>
		<g>
			<path d="M604.4,583.1l-41.6-37c-20.1-19.4-22.6-50.9-5.9-73.2l67.3-78.2l4,54.9l-40.5,46.3c-5.2,6.9-4.4,16.6,1.8,22.6l26.7,25.8
				L604.4,583.1z"/>
		</g>
		<g>
			<path d="M1065.2,423.4c-32,64-82,91.1-121.5,96.2c-45.2,5.8-85.2-15.9-103.7-28.1c-0.4-22.4-3-44.2-7.6-65.2
				c2,0.1,4.2,0.1,6.5,0.1c29.5,0,79.1-5.7,120.3-38.8c39.9-32,62.1-64.9,70.4-126.5l-29.6-45.1c-5.9,85.4-33.5,116.5-64.5,141.5
				c-43.7,35.2-102.6,30.9-114.3,29.6c-12-33.9-29.5-65.3-51.4-93.1h1.2c32.4,0,73.7-6.5,104.8-33.7c33.7-29.5,47.5-66.4,41.2-128.5
				l-37.9-24.9c5,49-4.7,103.6-28.5,124.4C811.1,266,742.1,254,730,251.6c-58-51.7-134.5-83.1-218.3-83.1
				c-181.4,0-328.4,147-328.4,328.4c0,14.5,0.9,28.7,2.7,42.7c-28.3-1.3-82.4,1.7-127.3,36.6c-40.4,31.3-47.5,78.4-53.4,127.1
				l30.8,43.3c4.4-53.9,14.5-115.4,45.8-139.8c41.2-32,94.9-29.7,111.6-28.1c5.2,20.2,12.2,39.6,20.9,58.1
				c-25.3,15.9-61.2,45.3-78.6,91.5c-18,47.8-20.3,88.8,3.4,138.6l52.2,34.4c-40.3-86.6-33.7-121.9-19.8-159.1
				c13.1-35,40.9-58.4,61.2-71.5c27,43.3,63.9,79.9,107.5,106.6c-28.3,16.4-61.9,43.4-75.1,83.6c-14,42.6,0.9,77.2,13.9,102.1
				l52.2,21.3c-29.2-39.6-39.5-81.3-29.7-111.4c13-40,57.5-63.9,80.8-73.9c39.7,17,83.4,26.4,129.3,26.4
				c168.5,0,307.4-127,326.3-290.4c22.3,11.8,54,24,90.4,24c6.5,0,13.1-0.4,19.8-1.2c50.7-6.3,88.7-31,126.5-84.5L1065.2,423.4z
				 M779,609.8c-14.6,34.5-35.5,65.6-62.2,92.2c-26.7,26.7-57.7,47.6-92.2,62.2c-35.7,15.1-73.7,22.8-112.9,22.8
				s-77.2-7.7-112.9-22.8c-4.3-1.8-8.6-3.7-12.8-5.8c-0.8-0.4-1.6-0.8-2.4-1.2c-28.5-14-54.4-32.6-77.1-55.3
				c-26.6-26.7-47.6-57.7-62.2-92.2c-15.1-35.7-22.8-73.7-22.8-112.9c0-39.2,7.7-77.2,22.8-112.9c14.6-34.5,35.5-65.6,62.2-92.2
				c26.7-26.6,57.7-47.6,92.2-62.2c35.7-15.1,73.7-22.8,112.9-22.8s77.2,7.7,112.9,22.8c34.5,14.6,65.6,35.5,92.2,62.2
				c26.7,26.7,47.6,57.7,62.2,92.2c15.1,35.7,22.8,73.7,22.8,112.9C801.7,536.1,794.1,574.1,779,609.8z"/>
		</g>
		<g>
			<path d="M386,758.4c-0.8-0.4-1.6-0.8-2.4-1.2c1-0.3,1.6-0.5,1.8-0.6L386,758.4z"/>
		</g>
		<circle cx="680.2" cy="841.6" r="31.1"/>
		<circle cx="762.9" cy="929.7" r="31.1"/>
		<circle cx="886.5" cy="975" r="31.1"/>
		<g>
			<path d="M244.3,219c-40,0-72.5-32.5-72.5-72.5s32.5-72.5,72.5-72.5c40,0,72.5,32.5,72.5,72.5S284.3,219,244.3,219z M244.3,112.2
				c-18.8,0-34.2,15.3-34.2,34.2s15.3,34.2,34.2,34.2s34.2-15.3,34.2-34.2S263.2,112.2,244.3,112.2z"/>
		</g>
	</g>
</g>
<g id="animation" class="st0">
	<g class="st1">
		<g>
			<polygon points="719.9,792.5 666.8,793 673.3,642.9 556.1,589.2 442.7,730.6 277.8,632.5 305,586.8 430.1,661.2 540.6,523.6 
				728.1,609.4 			"/>
		</g>
		<g>
			<circle cx="549.5" cy="289.4" r="67.4"/>
		</g>
		<g>
			<ellipse cx="553.6" cy="1035.7" rx="43.1" ry="39"/>
		</g>
		<g>
			<circle cx="434.4" cy="1035.7" r="39"/>
		</g>
		<g>
			<ellipse cx="713.8" cy="1035.7" rx="48.9" ry="39"/>
		</g>
		<g>
			<path d="M854.7,171.8v-50.7l-36-20.1v39.6c-60.4-47.1-133-79.2-212.2-90.9V9.6l-36-4.3V46c-10.1-0.7-20.3-1-30.5-1
				c-36.5,0-72.1,4.3-106.1,12.5V17l-36,8.6v42c-181,59.6-311.6,230-311.6,431c0,250.5,203.1,453.7,453.7,453.7
				c250.6,0,453.7-203.1,453.7-453.7C993.7,370.2,940.4,254.3,854.7,171.8z M343.5,149.6c13.1-7.4,26.7-14.1,40.7-20
				c4.6-1.9,9.2-3.8,13.8-5.5v116.5h36V112.3c34.3-9.4,69.9-14.2,106.1-14.2c10.2,0,20.4,0.4,30.5,1.1v88.7h36v-84.3
				c30.7,5.1,60.5,13.8,89.4,26c1.9,0.8,3.8,1.6,5.7,2.4h-1.2v290.2l-151.9-45.1l-129.8,98.1l-75.2-54.5V149.6z M823.2,781.8
				c-36.8,36.8-79.6,65.7-127.3,85.8C646.5,888.5,594.1,899,540,899c-54.1,0-106.5-10.6-155.8-31.5c-47.7-20.2-90.5-49-127.3-85.8
				c-36.8-36.8-65.7-79.6-85.8-127.3c-20.9-49.3-31.5-101.8-31.5-155.8c0-54.1,10.6-106.5,31.5-155.9c20.2-47.7,49-90.5,85.8-127.3
				c15.8-15.8,32.7-30.2,50.7-43v251.1L290,447.8l129.4,93.7l139.8-105.7l124.4,36.9L728,582.6l49.3-20l-41-101.1v-312
				c29.9,16.8,57.5,37.4,82.4,61.6v144.5h36V250.9c22.1,28,40.3,58.8,54.3,91.9c20.9,49.3,31.4,101.8,31.4,155.9
				c0,54.1-10.6,106.5-31.4,155.8C888.8,702.1,859.9,745,823.2,781.8z"/>
		</g>
	</g>
</g>
<g id="interactive">
	<g>
		<g>
			<path d="M56.2,562.5c-9,23-18.2,51.9-18.2,51.9c0.6,2.3,15.7,56.7,65.2,106.2c32.8,32.8,68.2,53.5,102.4,59.9
				c4.6,0.9,9.1,1.5,13.6,1.8c29.7,30.3,64.7,55.4,103.5,73.9c-18.1,10.4-39.8,18.1-66.3,19.5C91.2,884.2,27.1,743.7,20.3,732.3
				l-15,54c19.3,32.2,55,72.8,90.8,94.3c42.9,25.8,90.6,38.8,142.1,38.8c7,0,14.1-0.2,21.2-0.7c42.7-2.9,80.2-17.6,111.8-43.7
				c34.1,10.5,70.3,16.2,107.8,16.2c200.9,0,363.7-162.8,363.7-363.7c0-78.2-24.7-150.6-66.6-209.9c0.6-1,1.2-2,1.8-3
				c13-21.8,19.2-30,33.5-30c14.2,0,23.3,17.6,36.6,46.5c8.3,18.1,16.9,36.8,29.7,52.2c16.4,19.8,37,30,61.2,30.5c0.9,0,1.9,0,2.8,0
				c32,0,61.1-11.3,84.2-32.7c21.2-19.7,36.4-46.7,43.9-78.3c8.9-37.5,5.9-77.6-8.3-112.9c-16.1-39.9-33.9-69.2-72.9-96.1l-51,13
				c81.9,47,102.5,133.9,90.2,186.1c-9,38.3-36.9,78.9-88.1,77.8c-24.6-0.5-36.3-22.1-52.6-57.6c-7.3-15.9-14.8-32.3-25.1-45.3
				c-13.8-17.5-30.9-26.4-50.7-26.4c-33.9,0-51.7,21-64.1,40.5c-14-15.3-29.2-29.3-45.6-42c2.8,0,5.5-0.2,8.2-0.4
				c26.3-2.2,50.4-13,69.6-31.3c41.4-39.5,54.2-80.4,39.2-127.3l-46-2c17.3,33.8,4.5,71.9-23,98.1c-27.1,25.8-65.5,26.6-108.2,2.1
				c-30.3-17.4-60.4-22.2-89.5-14.2c-4.2,1.1-8.2,2.5-12,4.1c-19.9-3.4-40.3-5.1-61.1-5.1c-200.9,0-363.7,162.8-363.7,363.7
				c0,70.7,20.2,136.6,55,192.5C170.2,720,97.2,676.4,56.2,562.5z M272.8,773.1c6.7-3.1,12.9-7,18.7-11.6c29-23,45.9-52.3,48.7-84.7
				c2.4-27.3-5.4-49.5-10.3-60.2c-27.5-60.6-27.7-114-16.2-137.9c1.3-2.7,2.5-4.6,3.6-5.9c0,4.2-0.2,9.5-0.3,13.8
				c-0.7,16.3-1.6,38.5,4.5,63.1c5.4,21.6,15.5,51.3,41,60.7c16.6,6.1,35.3,1.9,55.6-12.7c19-13.5,31.6-35.5,37.6-65.3
				c4.1-20.4,4.2-41.2,2.9-53.9c-0.7-7.2-3.3-15.6-6.6-26.3c-3.4-11-7.2-23.4-8.9-34.5c-0.6-3.8-0.8-6.8-0.8-9.2
				c4.2,4.3,9.9,11.4,15.5,21.7c8.4,15.2,13.7,31.9,13.2,41.7c-0.8,15.9-1.1,38.7,1.7,57.2c1.6,10.2,3.9,18.3,7.2,24.8
				c7.9,15.5,20,18.7,26.5,19.2c10.7,0.8,21.1-4.2,31.6-15.4c17.5-18.5,40.6-61.4,36.7-90.6l-0.1-0.7c-1.5-11.1-3.5-26.3-3.6-40.3
				c-0.1-9.3,0.7-15.2,1.6-18.9c3.8,5.6,8.9,16.5,12.8,33.7c5,22,5,41.5,2.4,48.7c-1.7,4.9-3.5,9.9-5.3,14.7
				c-9.5,26.3-18.6,51-18.6,74.7c0,16,7.1,29.9,18.9,37c6.9,4.2,21.6,9.6,42.4-1.2c19.3-10.1,28.8-35.5,39.9-65
				c5.1-13.7,10.4-27.7,16.3-38.7c-0.7,13.5-3.3,31.8-9,52.9c-11.2,41-29.1,72.6-49.2,86.8c-12.9,9.1-64.8,27.2-102.7,40.3
				c-45.5,15.9-74.2,26-87.2,33.9c-12,7.2-20.2,21.3-31.5,40.9c-10.4,18-23.2,40.1-41.3,59.7c-2.1-0.8-4.2-1.7-6.3-2.6
				C324.6,810.4,297.3,793.7,272.8,773.1z M799.5,527.5c0,43.3-8.5,85.3-25.2,124.8c-16.1,38.2-39.3,72.5-68.7,101.9
				c-29.4,29.5-63.7,52.6-101.9,68.7c-39.5,16.7-81.5,25.2-124.8,25.2c-25.1,0-49.8-2.8-73.8-8.5c14.5-18.5,25.3-37.2,34-52.2
				c5.9-10.1,13.1-22.7,16.6-25.6c10.5-6.2,46.9-18.8,78.9-30c57.7-20.1,96.7-34.1,113.4-45.8c38.5-27.1,57.8-80.7,65.9-110.2
				c9.1-33.1,16-80.4,5.8-104.9c-7.2-17.1-21.7-21-32-19.1c-34.2,6.2-49.5,47-62.9,82.9c-4.6,12.3-12,31.9-17.5,39.6
				c1.3-15.4,8.3-34.8,15.8-55.2c1.8-4.9,3.6-9.9,5.4-15.1c10.9-30.8-0.9-101.9-27.3-129.7c-11.6-12.2-26.5-16.8-40.9-12.5
				c-13.8,4.1-30.6,17.1-32.3,55.7c-0.9,19.4,2,40.6,3.9,54.7l0.1,0.7c0.7,5-2.1,17.2-9.9,32.2c-2.5,4.9-5,9.2-7.4,12.7
				c-1-9.8-1.6-24-0.6-43.8c1.7-36-28.8-97.3-62.4-110.6c-15.3-6.1-30.6-2.4-41.1,9.8c-20.7,24.2-8.7,63.3,0.1,91.8
				c2.1,6.7,4.7,15.1,4.9,17.9c1.5,15.4,0.7,63.1-22.7,79.8c-10,7.1-14.9,7.6-15.6,7.3c-0.1,0-7.2-3.3-14.1-30.7
				c-4.7-18.6-3.9-35.8-3.3-50.9c0.5-11.8,0.9-22-1.3-31.5c-3.5-15-13.5-25.3-28-28.7c-17.3-4.1-34.3,2.1-46.6,17
				c-24.7,29.9-33.2,101.9,6.4,189.2c5.7,12.6,20.7,56.4-25.9,93.3c-7,5.5-16.1,9.6-26.9,11.1c-22.7-25.8-40.9-54.8-54.3-86.5
				c-16.7-39.5-25.2-81.5-25.2-124.8c0-43.3,8.5-85.3,25.2-124.8c16.1-38.2,39.3-72.5,68.7-101.9c29.4-29.5,63.7-52.6,101.9-68.7
				c39.5-16.7,81.5-25.2,124.8-25.2c3.3,0,6.5,0,9.8,0.2c-9.2,10.7-12.3,16.8-12.8,17.7l31,32c0.1-0.2,16-27.5,35.6-40.6
				c1.2-0.8,2.3-1.5,3.5-2.2c19.7,4.2,38.9,10.2,57.6,18.2c38.2,16.1,72.5,39.3,101.9,68.7c5.7,5.7,11.2,11.6,16.4,17.6
				c-6.6,5.9-14.4,8.7-25.7,8.3c-19.5-0.8-23.7-9.4-32.3-30.6c-4.3-10.7-9.3-22.9-18.3-32.6c-11.6-12.4-27.2-18-46.3-16.7
				c-32.7,2.3-47,27.4-56.5,43.9c-10.7,18.7-14.2,21.8-23.3,21.3c-9-0.5-16.1-10.6-26.9-27.1c-13.2-20.2-29.6-45.5-61.7-46.2
				c-30.9-0.7-57,15-73.6,44.4c-11.2,20-14.5,39.6-14.8,41.8l42.6,6.6c0.1-0.5,8.1-49.7,43.8-49.7c0.3,0,0.6,0,0.9,0
				c8.8,0.2,15.9,10.2,26.6,26.6c13,20,29.2,44.8,60.6,46.6c1.4,0.1,2.8,0.1,4.1,0.1c34.4,0,49.2-25.8,59.1-43.1
				c9.6-16.8,13.7-21.8,22.1-22.3c10.5-0.7,12.9,0.7,21.6,22.4c4.7,11.5,9.9,24.6,20.1,35.7c12.5,13.6,29.4,21,50.5,21.8
				c23.8,1,40.7-6.3,53.4-16.8c10.2,15.7,19,32.3,26.3,49.6C791,442.2,799.5,484.2,799.5,527.5z"/>
		</g>
		<circle cx="647.8" cy="950.2" r="43"/>
		<circle cx="815.6" cy="826.3" r="43"/>
		<circle cx="455.9" cy="958.2" r="43"/>
	</g>
</g>
<g id="vfx" class="st0">
	<g class="st1">
		<g>
			<path d="M540,921.4c215.5,0,390.1-173.5,390.1-387.6c0-204-158.6-371.1-360-386.4c20.4-46.2,21.5-92.6-9.1-141.6l-50.1,7
				c39.4,39.3,30.7,97.7,7.5,134.1C313,158,149.9,327,149.9,533.8c0,197.6,148.9,360.7,341.3,384.5c-5.6,17.5-7.7,35.8-6.5,55.5
				c1.9,30.2,6.8,62.8,25.1,99.9l55.4,0.4c-29.1-58.8-40.8-120-26-152.8H540z M542.5,192.3c45.6,0.3,89.9,9.4,131.6,26.9
				c41,17.2,77.8,41.9,109.4,73.3c31.6,31.4,56.4,67.9,73.7,108.6c17.9,42,27,86.8,27,132.9s-9.1,90.8-27,132.9
				c-17.3,40.7-42.1,77.2-73.7,108.6c-31.6,31.4-68.4,56.1-109.4,73.3c-31.4,13.2-64.2,21.6-98,25c17.6-16.2,39.2-31.8,63.1-49.1
				c54.4-39.4,116.1-84,153.1-157.3c28.2-55.9,38.8-110.1,31.4-161c-6.5-45.1-27.5-87-60.8-121c-35.3-36.2-83.4-62.5-135.3-74.1
				c-52.4-11.7-103.7-7.5-144.7,12c-37.2,17.7-66.3,41.2-86.5,69.9c-18.1,25.7-28.2,54.9-29.2,84.3c-1.7,46.7,19.3,88.1,54.6,108.1
				c59.7,33.7,114.1,3.4,116.4,2.1l-0.8-1.4c0.8,0,1.7,0.1,2.5,0.1c28.8,0,52.2-23.4,52.2-52.2c0-8.7-2.1-16.8-5.9-24
				c13.7-4.6,32.5-7.2,52.4,1.8c20.1,9.1,34,34,35.5,63.2c2.5,48.3-27.8,95.8-80.9,127c-62.1,36.4-160.5,23.8-224-28.9
				c-37.7-31.3-93.9-102.8-47.8-231.2c23.3-64.9,80.1-115.5,135.1-164.3C488.6,248.9,519.4,221.6,542.5,192.3z M405.9,848.6
				c-41-17.2-77.8-41.9-109.4-73.3c-31.6-31.4-56.4-67.9-73.7-108.6c-17.9-42.1-27-86.8-27-132.9s9.1-90.8,27-132.9
				c17.3-40.7,42.1-77.2,73.7-108.6c31.6-31.4,68.4-56.1,109.4-73.3c22.2-9.3,45.1-16.2,68.6-20.7c-14.2,14-30.6,28.8-48.5,44.7
				c-56.5,50.2-120.5,107.2-147.8,183.1c-21.5,59.8-25.7,115.9-12.5,166.6c11.7,45,37.4,84.9,74.2,115.5
				c47.6,39.5,109.9,60.3,169.3,60.3c38.7,0,76.1-8.9,107.3-27.2c36.1-21.2,63.6-47.9,81.5-79.5c16-28.1,23.7-59.1,22.1-89.5
				c-2.4-46.9-26.3-86.3-62.4-102.7c-55.9-25.5-105.4,3.8-117.4,11.9H540c-28.8,0-52.2,23.4-52.2,52.2c0,7.3,1.5,14.3,4.2,20.6
				c-12.9,1.8-29.9,0.8-47.6-9.2c-20-11.3-32.3-37.4-31.3-66.4c0.8-21.9,11-77,89.5-114.3c66.2-31.5,168.2-7.8,227.4,52.8
				c33.7,34.5,81.3,110.1,21.2,229.2c-32,63.4-86.4,102.7-139,140.8c-38,27.5-74.3,53.7-98.5,87.2
				C476.4,871.7,440.3,863,405.9,848.6z"/>
		</g>
		<g>
			<circle cx="650.7" cy="1009.4" r="52.2"/>
		</g>
		<g>
			<circle cx="386.7" cy="1009.4" r="52.2"/>
		</g>
		<g>
			<circle cx="435.7" cy="86.7" r="52.2"/>
		</g>
	</g>
</g>
</svg>
