{
	"asset":{
		"version":"2.0",
		"generator":"Houdini GLTF 2.0 Exporter"
	},
	"accessors":[
		{
			"bufferView":0,
			"componentType":5123,
			"count":2100,
			"type":"SCALAR",
			"min":[0
			],
			"max":[431
			]
		},
		{
			"bufferView":1,
			"componentType":5126,
			"count":432,
			"type":"VEC3",
			"min":[-1.390203,-0.767243385,-0.500394642
			],
			"max":[1.25805938,0.681269288,0.688851476
			]
		},
		{
			"bufferView":2,
			"componentType":5126,
			"count":432,
			"type":"VEC2",
			"min":[0.009765625,0.010561347
			],
			"max":[0.989547849,0.990234375
			]
		},
		{
			"bufferView":3,
			"componentType":5125,
			"count":432,
			"type":"SCALAR",
			"min":[0
			],
			"max":[0
			]
		},
		{
			"bufferView":4,
			"componentType":5126,
			"count":432,
			"type":"SCALAR",
			"min":[0.535012245
			],
			"max":[0.535012245
			]
		}
	],
	"buffers":[
		{
			"uri":"tunnel_data.bin",
			"byteLength":16296,
			"name":"main_buffer"
		}
	],
	"bufferViews":[
		{
			"buffer":0,
			"byteLength":4200,
			"target":34963
		},
		{
			"buffer":0,
			"byteOffset":4200,
			"byteLength":5184,
			"target":34962
		},
		{
			"buffer":0,
			"byteOffset":9384,
			"byteLength":3456,
			"target":34962
		},
		{
			"buffer":0,
			"byteOffset":12840,
			"byteLength":1728,
			"target":34962
		},
		{
			"buffer":0,
			"byteOffset":14568,
			"byteLength":1728,
			"target":34962
		}
	],
	"nodes":[
		{
			"name":"tunnel",
			"mesh":0
		}
	],
	"meshes":[
		{
			"primitives":[
				{
					"attributes":{
						"_coverage":4,
						"_numnonpacked":3,
						"TEXCOORD_0":2,
						"POSITION":1
					},
					"indices":0
				}
			],
			"name":"uvlayout1"
		}
	],
	"scenes":[
		{
			"nodes":[0
			]
		}
	],
	"scene":0
}
